<?xml version="1.0" encoding="UTF-8"?>
<svg width="524px" height="522px" viewBox="0 0 524 522" version="1.1" xmlns="http://www.w3.org/2000/svg" xmlns:xlink="http://www.w3.org/1999/xlink">
    <!-- Generator: Sketch 50.2 (55047) - http://www.bohemiancoding.com/sketch -->
    <title>Group 12</title>
    <desc>Created with Sketch.</desc>
    <defs></defs>
    <g id="desktop-design" stroke="none" stroke-width="1" fill="none" fill-rule="evenodd">
        <g id="1" transform="translate(-85.000000, -998.000000)">
            <g id="Group-12" transform="translate(76.000000, 989.000000)">
                <circle id="Oval-2" fill="#333333" cx="271" cy="270" r="50"></circle>
                <g id="Group-10" transform="translate(241.000000, 70.000000)" fill="#FFFFFF">
                    <circle id="Oval-2-Copy" cx="30" cy="30" r="30"></circle>
                    <circle id="Oval-2-Copy-2" cx="30" cy="370" r="30"></circle>
                </g>
                <g id="Group-9" transform="translate(264.000000, 142.000000)" fill="#FFFFFF" fill-rule="nonzero">
                    <g id="icons8-arrows_long_up" transform="translate(0.000000, 192.000000)">
                        <polygon id="Shape" points="7 0.09375 0.28125 6.8125 1.71875 8.21875 6 3.9375 6 64 8 64 8 3.9375 12.28125 8.21875 13.71875 6.8125"></polygon>
                    </g>
                    <g id="icons8-arrows_long_up" transform="translate(7.000000, 32.000000) scale(1, -1) translate(-7.000000, -32.000000) ">
                        <polygon id="Shape" points="7 0.09375 0.28125 6.8125 1.71875 8.21875 6 3.9375 6 64 8 64 8 3.9375 12.28125 8.21875 13.71875 6.8125"></polygon>
                    </g>
                </g>
                <g id="Group-9" transform="translate(271.000000, 270.000000) rotate(45.000000) translate(-271.000000, -270.000000) translate(264.000000, 142.000000)" fill="#FFFFFF" fill-rule="nonzero">
                    <g id="icons8-arrows_long_up" transform="translate(0.000000, 192.000000)">
                        <polygon id="Shape" points="7 0.09375 0.28125 6.8125 1.71875 8.21875 6 3.9375 6 64 8 64 8 3.9375 12.28125 8.21875 13.71875 6.8125"></polygon>
                    </g>
                    <g id="icons8-arrows_long_up" transform="translate(7.000000, 32.000000) scale(1, -1) translate(-7.000000, -32.000000) ">
                        <polygon id="Shape" points="7 0.09375 0.28125 6.8125 1.71875 8.21875 6 3.9375 6 64 8 64 8 3.9375 12.28125 8.21875 13.71875 6.8125"></polygon>
                    </g>
                </g>
                <g id="Group-9" transform="translate(271.000000, 270.000000) rotate(90.000000) translate(-271.000000, -270.000000) translate(264.000000, 142.000000)" fill="#FFFFFF" fill-rule="nonzero">
                    <g id="icons8-arrows_long_up" transform="translate(0.000000, 192.000000)">
                        <polygon id="Shape" points="7 0.09375 0.28125 6.8125 1.71875 8.21875 6 3.9375 6 64 8 64 8 3.9375 12.28125 8.21875 13.71875 6.8125"></polygon>
                    </g>
                    <g id="icons8-arrows_long_up" transform="translate(7.000000, 32.000000) scale(1, -1) translate(-7.000000, -32.000000) ">
                        <polygon id="Shape" points="7 0.09375 0.28125 6.8125 1.71875 8.21875 6 3.9375 6 64 8 64 8 3.9375 12.28125 8.21875 13.71875 6.8125"></polygon>
                    </g>
                </g>
                <g id="Group-9" transform="translate(271.000000, 270.000000) rotate(135.000000) translate(-271.000000, -270.000000) translate(264.000000, 142.000000)" fill="#FFFFFF" fill-rule="nonzero">
                    <g id="icons8-arrows_long_up" transform="translate(0.000000, 192.000000)">
                        <polygon id="Shape" points="7 0.09375 0.28125 6.8125 1.71875 8.21875 6 3.9375 6 64 8 64 8 3.9375 12.28125 8.21875 13.71875 6.8125"></polygon>
                    </g>
                    <g id="icons8-arrows_long_up" transform="translate(7.000000, 32.000000) scale(1, -1) translate(-7.000000, -32.000000) ">
                        <polygon id="Shape" points="7 0.09375 0.28125 6.8125 1.71875 8.21875 6 3.9375 6 64 8 64 8 3.9375 12.28125 8.21875 13.71875 6.8125"></polygon>
                    </g>
                </g>
                <g id="Group-10" transform="translate(271.000000, 270.000000) rotate(90.000000) translate(-271.000000, -270.000000) translate(241.000000, 70.000000)" fill="#FFFFFF">
                    <circle id="Oval-2-Copy" cx="30" cy="30" r="30"></circle>
                    <circle id="Oval-2-Copy-2" cx="30" cy="370" r="30"></circle>
                </g>
                <g id="icons8-cat" transform="translate(87.000000, 258.000000)" fill="#D22C34" fill-rule="nonzero">
                    <path d="M7,0 C7,1.117188 6.117188,2 5,2 L4,2 C1.800781,2 0,3.800781 0,6 C0,8.199219 1.800781,10 4,10 L5.15625,10 C5.054688,10.488281 5,10.984375 5,11.5 L5,24 L7,24 L7,11.5 C7,8.46875 9.46875,6 12.5,6 C13.402344,6 14.25,6.207031 15,6.59375 L15,4.4375 C14.21875,4.160156 13.378906,4 12.5,4 C9.632813,4 7.136719,5.628906 5.875,8 L4,8 C2.882813,8 2,7.117188 2,6 C2,4.882813 2.882813,4 4,4 L5,4 C7.199219,4 9,2.199219 9,0 L7,0 Z M16,2.09375 L16,8.5 C16,11.050781 18.316406,13 21,13 C23.683594,13 26,11.050781 26,8.5 L26,2.09375 L24.4375,3.1875 L22.78125,4.34375 C22.210938,4.140625 21.648438,3.90625 21,3.90625 C20.351563,3.90625 19.789063,4.140625 19.21875,4.34375 L17.5625,3.1875 L16,2.09375 Z M21,5.90625 C21.578125,5.90625 22.109375,6.046875 22.5625,6.28125 L23.09375,6.5625 L23.59375,6.21875 L24,5.9375 L24,8.5 C24,9.816406 22.734375,11 21,11 C19.265625,11 18,9.816406 18,8.5 L18,5.9375 L18.40625,6.21875 L18.90625,6.5625 L19.4375,6.28125 C19.890625,6.046875 20.421875,5.90625 21,5.90625 Z M14,11 C11.242188,11 9,13.242188 9,16 L9,24 L11,24 L11,16 C11,14.347656 12.347656,13 14,13 C15.652344,13 17,14.347656 17,16 L17,24 L19,24 L19,16 C19,15.035156 18.726563,14.140625 18.25,13.375 C17.285156,12.914063 16.476563,12.21875 15.90625,11.375 C15.320313,11.132813 14.671875,11 14,11 Z M23,13.6875 C22.371094,13.890625 21.703125,14 21,14 L21,24 L23,24 L23,13.6875 Z" id="Shape"></path>
                </g>
                <g id="icons8-student" transform="translate(258.000000, 87.000000)" fill="#D22C34" fill-rule="nonzero">
                    <path d="M13,0 L0,4 L3.105469,4.953125 L6,5.84375 L6,8.507813 C5.875,8.660156 5.78125,8.808594 5.707031,8.964844 C5.527344,9.34375 5.414063,9.765625 5.3125,10.265625 C5.121094,11.214844 5.019531,12.441406 5.007813,13.785156 C4.398438,14.332031 4,15.117188 4,16 C4,17.277344 4.90625,18.199219 6.035156,18.628906 C6.488281,19.933594 7.242188,21.367188 8.328125,22.582031 C9.515625,23.90625 11.101563,25 13,25 C14.898438,25 16.484375,23.90625 17.671875,22.582031 C18.757813,21.367188 19.511719,19.933594 19.964844,18.628906 C21.09375,18.199219 22,17.277344 22,16 C22,15.117188 21.605469,14.320313 20.988281,13.769531 C20.976563,12.429688 20.875,11.210938 20.6875,10.265625 C20.585938,9.765625 20.472656,9.34375 20.292969,8.964844 C20.21875,8.808594 20.125,8.660156 20,8.507813 L20,5.84375 L26,4 L13,0 Z M13,2.09375 L19.203125,4 L13,5.90625 L6.796875,4 L13,2.09375 Z M8,6.460938 L13,8 L13.296875,7.910156 L18,6.460938 L18,8.78125 C17.988281,8.796875 18,8.800781 17.953125,8.832031 C17.796875,8.964844 17.472656,9.15625 17.027344,9.335938 C16.132813,9.691406 14.746094,10 13,10 C11.253906,10 9.867188,9.691406 8.972656,9.335938 C8.527344,9.15625 8.203125,8.964844 8.046875,8.832031 C8,8.800781 8.011719,8.796875 8,8.78125 L8,6.460938 Z M7.265625,10.707031 C7.554688,10.882813 7.867188,11.046875 8.234375,11.191406 C9.410156,11.660156 11.023438,12 13,12 C14.976563,12 16.589844,11.660156 17.765625,11.191406 C18.132813,11.046875 18.445313,10.882813 18.734375,10.707031 C18.890625,11.515625 19,12.695313 19,14 L19,14.847656 L19.5,15.140625 C19.804688,15.3125 20,15.621094 20,16 C20,16.535156 19.601563,16.945313 19.078125,16.988281 L18.40625,17.042969 L18.207031,17.6875 C17.875,18.769531 17.132813,20.183594 16.175781,21.25 C15.222656,22.316406 14.109375,23 13,23 C11.890625,23 10.777344,22.316406 9.824219,21.25 C8.867188,20.183594 8.125,18.769531 7.792969,17.6875 L7.59375,17.042969 L6.921875,16.988281 C6.398438,16.945313 6,16.535156 6,16 C6,15.625 6.199219,15.316406 6.507813,15.140625 L7.019531,14.84375 L7,14 L7,13.988281 C7,12.691406 7.109375,11.515625 7.265625,10.707031 Z M5.171875,14 L6.003906,14 L5.164063,14.019531 L5.171875,14 Z M10,15 C9.449219,15 9,15.449219 9,16 C9,16.550781 9.449219,17 10,17 C10.550781,17 11,16.550781 11,16 C11,15.449219 10.550781,15 10,15 Z M16,15 C15.449219,15 15,15.449219 15,16 C15,16.550781 15.449219,17 16,17 C16.550781,17 17,16.550781 17,16 C17,15.449219 16.550781,15 16,15 Z" id="Shape"></path>
                </g>
                <g id="icons8-father" transform="translate(257.000000, 427.000000)" fill="#D22C34" fill-rule="nonzero">
                    <path d="M6,0 C3.800781,0 2,1.800781 2,4 C2,5.066406 2.433594,6.03125 3.125,6.75 C1.273438,7.773438 0,9.746094 0,12 L0,16.40625 L0.28125,16.71875 L2,18.4375 L2,26 L4,26 L4,17.59375 L3.71875,17.28125 L2,15.5625 L2,12 C2,9.78125 3.78125,8 6,8 C8.21875,8 10,9.78125 10,12 L10,15.5625 L8.28125,17.28125 L8,17.59375 L8,26 L10,26 L10,18.4375 L11.71875,16.71875 L12,16.40625 L12,12 C12,9.746094 10.726563,7.773438 8.875,6.75 C9.566406,6.03125 10,5.066406 10,4 C10,1.800781 8.199219,0 6,0 Z M6,2 C7.117188,2 8,2.882813 8,4 C8,5.117188 7.117188,6 6,6 C4.882813,6 4,5.117188 4,4 C4,2.882813 4.882813,2 6,2 Z M20,9 L20,15 L14,15 L14,16.5 C14,18.453125 15.042969,20.179688 16.59375,21.15625 C15.664063,21.523438 15,22.449219 15,23.5 C15,24.867188 16.132813,26 17.5,26 C18.867188,26 20,24.867188 20,23.5 C20,22.945313 19.8125,22.417969 19.5,22 L22.5,22 C22.1875,22.417969 22,22.945313 22,23.5 C22,24.867188 23.132813,26 24.5,26 C25.867188,26 27,24.867188 27,23.5 C27,22.449219 26.335938,21.523438 25.40625,21.15625 C26.824219,20.265625 27.808594,18.746094 27.96875,17 L28,17 L28,16 C28,16 28.019531,14.304688 27.15625,12.5625 C26.292969,10.820313 24.359375,9 21,9 L20,9 Z M22,11.25 C23.8125,11.554688 24.859375,12.390625 25.375,13.4375 C25.753906,14.203125 25.691406,14.507813 25.75,15 L22,15 L22,11.25 Z M16.09375,17 L25.90625,17 C25.65625,18.6875 24.253906,20 22.5,20 L19.5,20 C17.746094,20 16.34375,18.6875 16.09375,17 Z M17.5,23 C17.789063,23 18,23.210938 18,23.5 C18,23.789063 17.789063,24 17.5,24 C17.210938,24 17,23.789063 17,23.5 C17,23.210938 17.210938,23 17.5,23 Z M24.5,23 C24.789063,23 25,23.210938 25,23.5 C25,23.789063 24.789063,24 24.5,24 C24.210938,24 24,23.789063 24,23.5 C24,23.210938 24.210938,23 24.5,23 Z" id="Shape"></path>
                </g>
                <g id="icons8-cottage" transform="translate(429.000000, 258.000000)" fill="#D22C34" fill-rule="nonzero">
                    <path d="M0,0 L0,12 L1,12 L1,24 L11,24 L11,17 L13,17 L13,24 L23,24 L23,12 L24,12 L24,0 L0,0 Z M2,2 L22,2 L22,10 L17.4375,10 L12.71875,5.28125 L12,4.59375 L11.28125,5.28125 L6.5625,10 L2,10 L2,2 Z M12,7.4375 L16.28125,11.71875 L16.59375,12 L21,12 L21,22 L15,22 L15,15 L9,15 L9,22 L3,22 L3,12 L7.40625,12 L7.71875,11.71875 L12,7.4375 Z M5,15 L5,19 L7,19 L7,15 L5,15 Z M17,15 L17,19 L19,19 L19,15 L17,15 Z" id="Shape"></path>
                </g>
                <g id="Group-10" transform="translate(271.000000, 270.000000) rotate(135.000000) translate(-271.000000, -270.000000) translate(241.000000, 70.000000)" fill="#FFFFFF">
                    <circle id="Oval-2-Copy" cx="30" cy="30" r="30"></circle>
                    <circle id="Oval-2-Copy-2" cx="30" cy="370" r="30"></circle>
                </g>
                <g id="icons8-mastercard_credit_card" transform="translate(378.000000, 381.000000)" fill="#DD4343" fill-rule="nonzero">
                    <path d="M3,0 C1.3550302,0 0,1.3550302 0,3 L0,17 C0,18.64497 1.3550302,20 3,20 L25,20 C26.64497,20 28,18.64497 28,17 L28,3 C28,1.3550302 26.64497,0 25,0 L3,0 Z M3,2 L25,2 C25.56503,2 26,2.4349698 26,3 L26,5 L3,5 L3,7 L26,7 L26,17 C26,17.56503 25.56503,18 25,18 L3,18 C2.4349698,18 2,17.56503 2,17 L2,3 C2,2.4349698 2.4349698,2 3,2 Z M16.503906,9 C14.584963,9 13.007813,10.577151 13.007812,12.496094 C13.007813,14.415037 14.584963,15.992187 16.503906,15.992188 C17.247229,15.992187 17.934957,15.751104 18.503906,15.349609 C19.072856,15.751104 19.760584,15.992187 20.503906,15.992188 C22.422849,15.992187 24,14.415037 24,12.496094 C24,10.577151 22.422849,9 20.503906,9 C19.760584,9 19.072856,9.241084 18.503906,9.642578 C17.934957,9.241084 17.247229,9 16.503906,9 Z M16.503906,11 C16.784206,11 17.041535,11.077695 17.263672,11.207031 C17.102586,11.607363 17.007813,12.040773 17.007812,12.496094 C17.007813,12.951415 17.102586,13.384824 17.263672,13.785156 C17.041535,13.914493 16.784206,13.992187 16.503906,13.992188 C15.665844,13.992186 15.007814,13.334156 15.007812,12.496094 C15.007813,11.658031 15.665844,11 16.503906,11 Z M20.503906,11 C21.341969,11 22,11.658031 22,12.496094 C22,13.334156 21.341969,13.992186 20.503906,13.992188 C20.223607,13.992187 19.966278,13.914493 19.744141,13.785156 C19.905226,13.384824 20,12.951415 20,12.496094 C20,12.040773 19.905226,11.607363 19.744141,11.207031 C19.966278,11.077695 20.223607,11 20.503906,11 Z" id="Shape"></path>
                </g>
                <g id="icons8-car" transform="translate(137.000000, 140.000000)" fill="#D22C34" fill-rule="nonzero">
                    <path d="M7.5,0 C6.179688,0 5.003906,0.859375 4.625,2.125 L3.25,6.71875 L1.3125,6.0625 L0.6875,7.9375 L2.65625,8.59375 L2.03125,10.71875 C2.007813,10.808594 1.996094,10.90625 2,11 L2,18 C2,18.03125 2,18.0625 2,18.09375 L2,19 C2,19.550781 2.449219,20 3,20 L6,20 L6.34375,19 L21.65625,19 L22,20 L25,20 C25.550781,20 26,19.550781 26,19 L26,18.15625 C26.003906,18.105469 26.003906,18.050781 26,18 L26,11 C26.003906,10.90625 25.992188,10.808594 25.96875,10.71875 L25.34375,8.59375 L27.3125,7.9375 L26.6875,6.0625 L24.75,6.71875 L23.375,2.125 C22.996094,0.859375 21.820313,0 20.5,0 L7.5,0 Z M7.5,2 L20.5,2 C20.945313,2 21.339844,2.292969 21.46875,2.71875 L22.75,7 L5.25,7 L6.53125,2.71875 C6.660156,2.289063 7.054688,2 7.5,2 Z M4.65625,9 L23.34375,9 L24,11.1875 L24,17 L4,17 L4,11.1875 L4.65625,9 Z M6.5,10 C5.671875,10 5,10.671875 5,11.5 C5,12.328125 5.671875,13 6.5,13 C7.328125,13 8,12.328125 8,11.5 C8,10.671875 7.328125,10 6.5,10 Z M21.5,10 C20.671875,10 20,10.671875 20,11.5 C20,12.328125 20.671875,13 21.5,13 C22.328125,13 23,12.328125 23,11.5 C23,10.671875 22.328125,10 21.5,10 Z M10,13 L8.75,16 L10.90625,16 L11.34375,15 L16.65625,15 L17.09375,16 L19.25,16 L18,13 L10,13 Z" id="Shape"></path>
                </g>
                <g id="Group-10" transform="translate(271.000000, 270.000000) rotate(45.000000) translate(-271.000000, -270.000000) translate(241.000000, 70.000000)" fill="#FFFFFF">
                    <circle id="Oval-2-Copy" cx="30" cy="30" r="30"></circle>
                    <circle id="Oval-2-Copy-2" cx="30" cy="370" r="30"></circle>
                </g>
                <g id="icons8-male" transform="translate(379.000000, 139.000000)" fill="#D22C34" fill-rule="nonzero">
                    <path d="M13,0 L13,2 L20.5625,2 L12.875,9.6875 C11.523438,8.644531 9.832031,8 8,8 C3.59375,8 0,11.59375 0,16 C0,20.40625 3.59375,24 8,24 C12.40625,24 16,20.40625 16,16 C16,14.167969 15.355469,12.476563 14.3125,11.125 L22,3.4375 L22,11 L24,11 L24,0 L13,0 Z M8,10 C11.324219,10 14,12.675781 14,16 C14,19.324219 11.324219,22 8,22 C4.675781,22 2,19.324219 2,16 C2,12.675781 4.675781,10 8,10 Z" id="Shape"></path>
                </g>
                <g id="icons8-permanent_job" transform="translate(138.000000, 379.000000)" fill="#D22C34" fill-rule="nonzero">
                    <path d="M6,0 L6,7.09375 C6.328125,7.046875 6.660156,7 7,7 C7.339844,7 7.671875,7.046875 8,7.09375 L8,2 L22,2 L22,20 L15.03125,20 C15.347656,20.628906 15.621094,21.296875 15.78125,22 L24,22 L24,0 L6,0 Z M10,4 L10,6 L12,6 L12,4 L10,4 Z M14,4 L14,6 L16,6 L16,4 L14,4 Z M18,4 L18,6 L20,6 L20,4 L18,4 Z M10.59375,8 C11.109375,8.3125 11.578125,8.695313 12,9.125 L12,8 L10.59375,8 Z M14,8 L14,10 L16,10 L16,8 L14,8 Z M18,8 L18,10 L20,10 L20,8 L18,8 Z M7,9 C4.25,9 2,11.25 2,14 C2,15.515625 2.707031,16.863281 3.78125,17.78125 C1.535156,18.949219 0,21.300781 0,24 L2,24 C2,21.226563 4.226563,19 7,19 C9.773438,19 12,21.226563 12,24 L14,24 C14,21.300781 12.46875,18.949219 10.21875,17.78125 C11.292969,16.863281 12,15.515625 12,14 C12,11.25 9.75,9 7,9 Z M7,11 C8.667969,11 10,12.332031 10,14 C10,15.667969 8.667969,17 7,17 C5.332031,17 4,15.667969 4,14 C4,12.332031 5.332031,11 7,11 Z M14,12 L14,14 L16,14 L16,12 L14,12 Z M18,12 L18,14 L20,14 L20,12 L18,12 Z M14,16 L14,18 L16,18 L16,16 L14,16 Z M18,16 L18,18 L20,18 L20,16 L18,16 Z" id="Shape"></path>
                </g>
                <g id="Group-10" transform="translate(271.000000, 270.000000) rotate(23.000000) translate(-271.000000, -270.000000) translate(241.000000, -10.000000)" fill="#DD4343">
                    <circle id="Oval-2-Copy" cx="30" cy="30" r="30"></circle>
                    <circle id="Oval-2-Copy-2" cx="30" cy="530" r="30"></circle>
                </g>
                <g id="icons8-stethoscope" transform="translate(357.000000, 27.000000)" fill="#FFFFFF" fill-rule="nonzero">
                    <path d="M4,0 C3.210938,0 2.542969,0.460938 2.21875,1.125 C0.953125,1.476563 0,2.628906 0,4 L0,13.375 L0.25,13.65625 C0.25,13.65625 2.605469,16.414063 6,16.90625 L6,19 C6,22.300781 8.699219,25 12,25 C15.300781,25 18,22.300781 18,19 L18,14 C18,12.882813 18.882813,12 20,12 C21.117188,12 22,12.882813 22,14 L22,14.1875 C20.84375,14.605469 20,15.707031 20,17 C20,18.644531 21.355469,20 23,20 C24.644531,20 26,18.644531 26,17 C26,15.707031 25.15625,14.605469 24,14.1875 L24,14 C24,11.800781 22.199219,10 20,10 C17.800781,10 16,11.800781 16,14 L16,19 C16,21.21875 14.21875,23 12,23 C9.78125,23 8,21.21875 8,19 L8,16.90625 C11.394531,16.414063 13.75,13.65625 13.75,13.65625 L14,13.375 L14,4 C14,2.628906 13.046875,1.476563 11.78125,1.125 C11.457031,0.460938 10.789063,0 10,0 C8.894531,0 8,0.894531 8,2 C8,3.105469 8.894531,4 10,4 C10.65625,4 11.230469,3.679688 11.59375,3.1875 C11.84375,3.367188 12,3.660156 12,4 L12,12.5625 C11.640625,12.925781 9.511719,15 7,15 C4.488281,15 2.359375,12.925781 2,12.5625 L2,4 C2,3.660156 2.15625,3.367188 2.40625,3.1875 C2.769531,3.679688 3.34375,4 4,4 C5.105469,4 6,3.105469 6,2 C6,0.894531 5.105469,0 4,0 Z M23,16 C23.5625,16 24,16.4375 24,17 C24,17.5625 23.5625,18 23,18 C22.4375,18 22,17.5625 22,17 C22,16.4375 22.4375,16 23,16 Z" id="Shape"></path>
                </g>
                <g id="icons8-music" transform="translate(160.000000, 487.000000)" fill="#FFFFFF" fill-rule="nonzero">
                    <path d="M24,0.78125 L22.8125,1.03125 L6.8125,4.03125 L6,4.15625 L6,17.5625 C5.40625,17.214844 4.734375,17 4,17 C1.800781,17 0,18.800781 0,21 C0,23.199219 1.800781,25 4,25 C6.199219,25 8,23.199219 8,21 L8,9.8125 L22,7.1875 L22,14.5625 C21.40625,14.214844 20.734375,14 20,14 C17.800781,14 16,15.800781 16,18 C16,20.199219 17.800781,22 20,22 C22.199219,22 24,20.199219 24,18 L24,0.78125 Z M22,3.1875 L22,5.1875 L8,7.8125 L8,5.8125 L22,3.1875 Z M20,16 C21.117188,16 22,16.882813 22,18 C22,19.117188 21.117188,20 20,20 C18.882813,20 18,19.117188 18,18 C18,16.882813 18.882813,16 20,16 Z M4,19 C5.117188,19 6,19.882813 6,21 C6,22.117188 5.117188,23 4,23 C2.882813,23 2,22.117188 2,21 C2,19.882813 2.882813,19 4,19 Z" id="Shape"></path>
                </g>
                <g id="Group-10" transform="translate(271.000000, 270.000000) rotate(-23.000000) translate(-271.000000, -270.000000) translate(241.000000, -10.000000)" fill="#DD4343">
                    <circle id="Oval-2-Copy" cx="30" cy="30" r="30"></circle>
                    <circle id="Oval-2-Copy-2" cx="30" cy="530" r="30"></circle>
                </g>
                <g id="icons8-marker" transform="translate(359.000000, 488.000000)" fill="#FFFFFF" fill-rule="nonzero">
                    <path d="M9,0 C4.042969,0 0,4.042969 0,9 C0,10.40625 0.570313,12.019531 1.34375,13.78125 C2.117188,15.542969 3.113281,17.414063 4.125,19.15625 C6.148438,22.644531 8.1875,25.5625 8.1875,25.5625 L9,26.75 L9.8125,25.5625 C9.8125,25.5625 11.851563,22.644531 13.875,19.15625 C14.886719,17.414063 15.882813,15.542969 16.65625,13.78125 C17.429688,12.019531 18,10.40625 18,9 C18,4.042969 13.957031,0 9,0 Z M9,2 C12.878906,2 16,5.121094 16,9 C16,9.800781 15.570313,11.316406 14.84375,12.96875 C14.117188,14.621094 13.113281,16.453125 12.125,18.15625 C10.554688,20.867188 9.578125,22.300781 9,23.15625 C8.421875,22.300781 7.445313,20.867188 5.875,18.15625 C4.886719,16.453125 3.882813,14.621094 3.15625,12.96875 C2.429688,11.316406 2,9.800781 2,9 C2,5.121094 5.121094,2 9,2 Z M9,7 C7.894531,7 7,7.894531 7,9 C7,10.105469 7.894531,11 9,11 C10.105469,11 11,10.105469 11,9 C11,7.894531 10.105469,7 9,7 Z" id="Shape"></path>
                </g>
                <g id="Group-10" transform="translate(271.000000, 270.000000) rotate(-68.000000) translate(-271.000000, -270.000000) translate(241.000000, -10.000000)" fill="#DD4343">
                    <circle id="Oval-2-Copy" cx="30" cy="30" r="30"></circle>
                    <circle id="Oval-2-Copy-2" cx="30" cy="530" r="30"></circle>
                </g>
                <g id="icons8-camera" transform="translate(26.000000, 167.000000)" fill="#FFFFFF" fill-rule="nonzero">
                    <path d="M8.5,0 L8.1875,0.40625 L7,2 L0,2 L0,20 L26,20 L26,2 L19,2 L17.8125,0.40625 L17.5,0 L8.5,0 Z M9.5,2 L16.5,2 L17.6875,3.59375 L18,4 L24,4 L24,18 L2,18 L2,4 L8,4 L8.3125,3.59375 L9.5,2 Z M5,5 C4.449219,5 4,5.449219 4,6 C4,6.550781 4.449219,7 5,7 C5.550781,7 6,6.550781 6,6 C6,5.449219 5.550781,5 5,5 Z M13,5 C9.699219,5 7,7.699219 7,11 C7,14.300781 9.699219,17 13,17 C16.300781,17 19,14.300781 19,11 C19,7.699219 16.300781,5 13,5 Z M13,7 C15.222656,7 17,8.777344 17,11 C17,13.222656 15.222656,15 13,15 C10.777344,15 9,13.222656 9,11 C9,8.777344 10.777344,7 13,7 Z" id="Shape"></path>
                </g>
                <g id="icons8-search" transform="translate(489.000000, 351.000000)" fill="#FFFFFF" fill-rule="nonzero">
                    <path d="M16,0 C10.488281,0 6,4.488281 6,10 C6,12.394531 6.839844,14.589844 8.25,16.3125 L0.28125,24.28125 L1.71875,25.71875 L9.6875,17.75 C11.410156,19.160156 13.605469,20 16,20 C21.511719,20 26,15.511719 26,10 C26,4.488281 21.511719,0 16,0 Z M16,2 C20.429688,2 24,5.570313 24,10 C24,14.429688 20.429688,18 16,18 C11.570313,18 8,14.429688 8,10 C8,5.570313 11.570313,2 16,2 Z" id="Shape"></path>
                </g>
                <g id="icons8-time_search" transform="translate(159.000000, 26.000000)" fill="#FFFFFF" fill-rule="nonzero">
                    <path d="M12,0 C5.383,0 0,5.383 0,12 C0,18.617 5.383,24 12,24 C12.663,24 13.309359,23.932125 13.943359,23.828125 L15.541016,22.230469 C15.433016,21.969469 15.346484,21.705453 15.271484,21.439453 C14.244484,21.796453 13.147,22 12,22 C6.486,22 2,17.514 2,12 C2,6.486 6.486,2 12,2 C17.514,2 22,6.486 22,12 C22,12.009 21.998047,12.017391 21.998047,12.025391 C22.164047,12.014391 22.331,12 22.5,12 C23.011,12 23.510188,12.052391 23.992188,12.150391 C23.993187,12.100391 24,12.051 24,12 C24,5.383 18.617,0 12,0 Z M11,4 L11,13 L18,13 L18,11 L13,11 L13,4 L11,4 Z M22.5,14 C19.5,14 17,16.5 17,19.5 C17,20.7 17.4,21.699609 18,22.599609 L14.300781,26.300781 L15.699219,27.699219 L19.400391,24 C20.300391,24.6 21.4,25 22.5,25 C25.5,25 28,22.5 28,19.5 C28,16.5 25.5,14 22.5,14 Z M22.5,16 C24.4,16 26,17.6 26,19.5 C26,21.4 24.4,23 22.5,23 C20.6,23 19,21.4 19,19.5 C19,17.6 20.6,16 22.5,16 Z" id="Shape"></path>
                </g>
                <g id="Group-10" transform="translate(271.000000, 270.000000) rotate(68.000000) translate(-271.000000, -270.000000) translate(241.000000, -10.000000)" fill="#DD4343">
                    <circle id="Oval-2-Copy" cx="30" cy="30" r="30"></circle>
                    <circle id="Oval-2-Copy-2" cx="30" cy="530" r="30"></circle>
                </g>
                <g id="icons8-movie_projector" transform="translate(492.000000, 165.000000)" fill="#FFFFFF" fill-rule="nonzero">
                    <path d="M12,0 C9.722656,0 7.816406,1.5625 7.21875,3.65625 C6.488281,2.664063 5.316406,2 4,2 C1.800781,2 0,3.800781 0,6 C0,6.734375 0.214844,7.40625 0.5625,8 L0,8 L0,22 L17,22 L17,18.375 L23,20.375 L23,9.625 L17,11.625 L17,8 L16,8 C16.632813,7.160156 17,6.125 17,5 C17,2.25 14.75,0 12,0 Z M12,2 C13.667969,2 15,3.332031 15,5 C15,6.667969 13.667969,8 12,8 C10.332031,8 9,6.667969 9,5 C9,3.332031 10.332031,2 12,2 Z M4,4 C5.117188,4 6,4.882813 6,6 C6,7.117188 5.117188,8 4,8 C2.882813,8 2,7.117188 2,6 C2,4.882813 2.882813,4 4,4 Z M7.6875,7.5 C7.789063,7.675781 7.90625,7.839844 8.03125,8 L7.4375,8 C7.535156,7.835938 7.613281,7.679688 7.6875,7.5 Z M2,10 L15,10 L15,20 L2,20 L2,10 Z M21,12.375 L21,17.625 L17,16.28125 L17,13.71875 L21,12.375 Z" id="Shape"></path>
                </g>
                <g id="icons8-domain" transform="translate(26.000000, 352.000000)" fill="#FFFFFF" fill-rule="nonzero">
                    <path d="M12,0 C7.167969,0 2.996094,2.875 1.09375,7 L3.34375,7 C4.421875,5.144531 6.078125,3.667969 8.0625,2.8125 C7.398438,3.941406 6.855469,5.363281 6.5,7 L8.59375,7 C9.351563,3.960938 10.722656,2 12,2 C13.277344,2 14.648438,3.960938 15.40625,7 L17.5,7 C17.144531,5.363281 16.601563,3.941406 15.9375,2.8125 C17.921875,3.667969 19.578125,5.144531 20.65625,7 L22.90625,7 C21.003906,2.875 16.832031,0 12,0 Z M0,9 L1.5,15 L2.96875,15 C2.96875,15 4.007813,11.367188 4.03125,11.09375 L4.0625,11.09375 C4.074219,11.339844 5.09375,15 5.09375,15 L6.5,15 L8,9 L6.71875,9 C6.71875,9 5.855469,12.589844 5.84375,12.8125 L5.8125,12.8125 C5.785156,12.53125 4.8125,9 4.8125,9 L3.4375,9 C3.4375,9 2.292969,12.628906 2.28125,12.84375 C2.265625,12.558594 1.40625,9 1.40625,9 L0,9 Z M8,9 L9.5,15 L10.96875,15 C10.96875,15 12.007813,11.367188 12.03125,11.09375 L12.0625,11.09375 C12.074219,11.339844 13.09375,15 13.09375,15 L14.5,15 L16,9 L14.71875,9 C14.71875,9 13.855469,12.589844 13.84375,12.8125 L13.8125,12.8125 C13.785156,12.53125 12.8125,9 12.8125,9 L11.4375,9 C11.4375,9 10.292969,12.628906 10.28125,12.84375 C10.265625,12.558594 9.40625,9 9.40625,9 L8,9 Z M16,9 L17.5,15 L18.96875,15 C18.96875,15 20.007813,11.367188 20.03125,11.09375 L20.0625,11.09375 C20.074219,11.339844 21.09375,15 21.09375,15 L22.5,15 L24,9 L22.71875,9 C22.71875,9 21.855469,12.589844 21.84375,12.8125 L21.8125,12.8125 C21.785156,12.53125 20.8125,9 20.8125,9 L19.4375,9 C19.4375,9 18.292969,12.628906 18.28125,12.84375 C18.265625,12.558594 17.40625,9 17.40625,9 L16,9 Z M1.09375,17 C2.996094,21.125 7.167969,24 12,24 C16.832031,24 21.003906,21.125 22.90625,17 L20.65625,17 C19.578125,18.855469 17.921875,20.332031 15.9375,21.1875 C16.601563,20.058594 17.144531,18.636719 17.5,17 L15.40625,17 C14.648438,20.039063 13.277344,22 12,22 C10.722656,22 9.351563,20.039063 8.59375,17 L6.5,17 C6.855469,18.636719 7.398438,20.058594 8.0625,21.1875 C6.078125,20.332031 4.421875,18.855469 3.34375,17 L1.09375,17 Z" id="Shape"></path>
                </g>
                <g id="Group-11" transform="translate(272.000000, 270.500000) rotate(22.000000) translate(-272.000000, -270.500000) translate(265.000000, 60.000000)" fill="#333333" fill-rule="nonzero">
                    <g id="icons8-arrows_long_up" transform="translate(7.000000, 348.000000) scale(1, -1) translate(-7.000000, -348.000000) translate(0.000000, 275.000000)">
                        <polygon id="Shape" points="7 0.09375 0.28125 6.8125 1.71875 8.21875 6 3.9375 6 145.243344 8 145.243344 8 3.9375 12.28125 8.21875 13.71875 6.8125"></polygon>
                    </g>
                    <g id="icons8-arrows_long_up">
                        <polygon id="Shape" points="7 0.09375 0.28125 6.8125 1.71875 8.21875 6 3.9375 6 145.243344 8 145.243344 8 3.9375 12.28125 8.21875 13.71875 6.8125"></polygon>
                    </g>
                </g>
                <g id="Group-11" transform="translate(272.000000, 270.500000) rotate(-23.000000) translate(-272.000000, -270.500000) translate(265.000000, 60.000000)" fill="#333333" fill-rule="nonzero">
                    <g id="icons8-arrows_long_up" transform="translate(7.000000, 348.000000) scale(1, -1) translate(-7.000000, -348.000000) translate(0.000000, 275.000000)">
                        <polygon id="Shape" points="7 0.09375 0.28125 6.8125 1.71875 8.21875 6 3.9375 6 145.243344 8 145.243344 8 3.9375 12.28125 8.21875 13.71875 6.8125"></polygon>
                    </g>
                    <g id="icons8-arrows_long_up">
                        <polygon id="Shape" points="7 0.09375 0.28125 6.8125 1.71875 8.21875 6 3.9375 6 145.243344 8 145.243344 8 3.9375 12.28125 8.21875 13.71875 6.8125"></polygon>
                    </g>
                </g>
                <g id="Group-11" transform="translate(272.000000, 270.500000) rotate(-68.000000) translate(-272.000000, -270.500000) translate(265.000000, 60.000000)" fill="#333333" fill-rule="nonzero">
                    <g id="icons8-arrows_long_up" transform="translate(7.000000, 348.000000) scale(1, -1) translate(-7.000000, -348.000000) translate(0.000000, 275.000000)">
                        <polygon id="Shape" points="7 0.09375 0.28125 6.8125 1.71875 8.21875 6 3.9375 6 145.243344 8 145.243344 8 3.9375 12.28125 8.21875 13.71875 6.8125"></polygon>
                    </g>
                    <g id="icons8-arrows_long_up">
                        <polygon id="Shape" points="7 0.09375 0.28125 6.8125 1.71875 8.21875 6 3.9375 6 145.243344 8 145.243344 8 3.9375 12.28125 8.21875 13.71875 6.8125"></polygon>
                    </g>
                </g>
                <g id="Group-11" transform="translate(272.000000, 270.500000) rotate(-112.000000) translate(-272.000000, -270.500000) translate(265.000000, 60.000000)" fill="#333333" fill-rule="nonzero">
                    <g id="icons8-arrows_long_up" transform="translate(7.000000, 348.000000) scale(1, -1) translate(-7.000000, -348.000000) translate(0.000000, 275.000000)">
                        <polygon id="Shape" points="7 0.09375 0.28125 6.8125 1.71875 8.21875 6 3.9375 6 145.243344 8 145.243344 8 3.9375 12.28125 8.21875 13.71875 6.8125"></polygon>
                    </g>
                    <g id="icons8-arrows_long_up">
                        <polygon id="Shape" points="7 0.09375 0.28125 6.8125 1.71875 8.21875 6 3.9375 6 145.243344 8 145.243344 8 3.9375 12.28125 8.21875 13.71875 6.8125"></polygon>
                    </g>
                </g>
                <path d="M258.014,287.214 L258.014,293 L254.626,293 L254.626,287.214 L249.456,277.908 L253.284,277.908 L256.43,283.892 L256.54,283.892 L259.686,277.908 L263.162,277.908 L258.014,287.214 Z M277.836,286.532 C277.836,287.910674 277.535336,289.105995 276.934,290.118 C276.332664,291.130005 275.522338,291.899997 274.503,292.428 C273.483662,292.956003 272.350673,293.22 271.104,293.22 C269.857327,293.22 268.724338,292.956003 267.705,292.428 C266.685662,291.899997 265.875336,291.130005 265.274,290.118 C264.672664,289.105995 264.372,287.910674 264.372,286.532 L264.372,284.376 C264.372,282.997326 264.672664,281.802005 265.274,280.79 C265.875336,279.777995 266.685662,279.008003 267.705,278.48 C268.724338,277.951997 269.857327,277.688 271.104,277.688 C272.350673,277.688 273.483662,277.951997 274.503,278.48 C275.522338,279.008003 276.332664,279.777995 276.934,280.79 C277.535336,281.802005 277.836,282.997326 277.836,284.376 L277.836,286.532 Z M274.272,283.892 C274.272,282.777328 273.97867,281.91567 273.392,281.307 C272.80533,280.69833 272.042671,280.394 271.104,280.394 C270.165329,280.394 269.40267,280.69833 268.816,281.307 C268.22933,281.91567 267.936,282.777328 267.936,283.892 L267.936,287.016 C267.936,288.130672 268.22933,288.99233 268.816,289.601 C269.40267,290.20967 270.165329,290.514 271.104,290.514 C272.042671,290.514 272.80533,290.20967 273.392,289.601 C273.97867,288.99233 274.272,288.130672 274.272,287.016 L274.272,283.892 Z M292.29,288.204 C292.29,289.201338 292.055336,290.08133 291.586,290.844 C291.116664,291.60667 290.449338,292.193331 289.584,292.604 C288.718662,293.014669 287.721339,293.22 286.592,293.22 L285.976,293.22 C284.846661,293.22 283.853004,293.014669 282.995,292.604 C282.136996,292.193331 281.473336,291.60667 281.004,290.844 C280.534664,290.08133 280.3,289.201338 280.3,288.204 L280.3,277.908 L283.688,277.908 L283.688,288.138 C283.688,288.827337 283.933664,289.399331 284.425,289.854 C284.916336,290.308669 285.54333,290.536 286.306,290.536 C287.083337,290.536 287.710331,290.312336 288.187,289.865 C288.663669,289.417664 288.902,288.842004 288.902,288.138 L288.902,277.908 L292.29,277.908 L292.29,288.204 Z" id="YOU" fill="#FFFFFF"></path>
                <g id="icons8-user" transform="translate(261.000000, 246.000000)" fill="#FFFFFF" fill-rule="nonzero">
                    <path d="M10,0 C6.144531,0 3,3.144531 3,7 C3,9.410156 4.230469,11.550781 6.09375,12.8125 C2.527344,14.34375 0,17.882813 0,22 L2,22 C2,19.109375 3.527344,16.59375 5.8125,15.1875 C6.484375,16.835938 8.121094,18 10,18 C11.878906,18 13.515625,16.835938 14.1875,15.1875 C16.472656,16.59375 18,19.109375 18,22 L20,22 C20,17.882813 17.472656,14.34375 13.90625,12.8125 C15.769531,11.550781 17,9.410156 17,7 C17,3.144531 13.855469,0 10,0 Z M10,2 C12.773438,2 15,4.226563 15,7 C15,9.773438 12.773438,12 10,12 C7.226563,12 5,9.773438 5,7 C5,4.226563 7.226563,2 10,2 Z M10,14 C10.820313,14 11.601563,14.117188 12.34375,14.34375 C11.996094,15.308594 11.089844,16 10,16 C8.910156,16 8.003906,15.308594 7.65625,14.34375 C8.398438,14.117188 9.179688,14 10,14 Z" id="Shape"></path>
                </g>
            </g>
        </g>
    </g>
</svg>