<?xml version="1.0" encoding="UTF-8"?>
<svg width="255px" height="38px" viewBox="0 0 255 38" version="1.1" xmlns="http://www.w3.org/2000/svg" xmlns:xlink="http://www.w3.org/1999/xlink">
    <!-- Generator: Sketch 50.2 (55047) - http://www.bohemiancoding.com/sketch -->
    <title>Logo Copy</title>
    <desc>Created with Sketch.</desc>
    <defs></defs>
    <g id="Logo-Copy" stroke="none" stroke-width="1" fill="none" fill-rule="evenodd">
        <g id="icons8-fingerprint" transform="translate(0.000000, 4.000000)" fill="#262626" fill-rule="nonzero">
            <path d="M14.2860552,0 C13.9695319,0 13.6860784,0.0188205772 13.3790041,0.0376411543 C11.6782832,0.13174404 10.0153562,0.47992532 8.4658105,1.09159348 L9.37286162,3.35006274 C10.6767476,2.83249747 12.0514973,2.52666218 13.4923855,2.44667503 C13.7427691,2.4325593 14.0120508,2.40903388 14.2860552,2.40903388 C16.5631321,2.40903388 18.7173785,2.98306208 20.5976193,3.98996236 L21.7314332,1.88205772 C19.5110482,0.691656512 16.9694148,0 14.2860552,0 Z M6.42494547,2.07026349 C5.00295416,2.8889592 3.69434425,3.94291152 2.56997819,5.1944793 C2.06921098,5.74968693 1.62985719,6.37547082 1.2094015,7.00125471 C0.746428093,7.68820637 0.344868094,8.40809315 0,9.1468005 L2.19204022,10.1254705 C2.48021762,9.50439147 2.82036179,8.90683784 3.21247273,8.31869511 C3.56678988,7.7870141 3.96362475,7.27885852 4.38408044,6.81304893 C5.34309833,5.74498088 6.43911844,4.86982464 7.63434697,4.17816813 L6.42494547,2.07026349 Z M23.9234734,3.27478043 L22.4495153,5.1944793 C25.4021554,7.47647398 27.3343642,10.9535759 27.5516779,14.9435383 C27.5564018,15.0188206 27.6083686,15.6775408 27.5516779,16.7879548 L29.9704809,16.9385194 C30.0318955,15.7292977 29.97993,14.9341286 29.9704809,14.7929737 C29.7153734,10.0925342 27.4099518,5.96612296 23.9234734,3.27478043 Z M14.2860552,3.61355082 L14.2860552,6.02258469 C19.4260116,6.02258469 23.6825377,10.0125471 23.9612672,15.131744 C23.9707163,15.2681929 24.1171663,18.825282 22.7518657,23.1116688 L25.0572873,23.8268507 C26.5548662,19.1264112 26.3989671,15.357591 26.3800702,15.0188206 C26.0352021,8.64334976 20.6873799,3.61355082 14.2860552,3.61355082 Z M12.0562212,3.80175659 C9.45317314,4.27697586 7.09106083,5.60382715 5.29113156,7.60351317 C4.90374575,8.03168161 4.52108265,8.51160572 4.19511145,8.99623588 L4.23290525,8.99623588 L4.23290525,9.03387704 C2.82036179,11.1558974 2.0739349,13.6119821 2.19204022,16.1480552 C2.19204022,16.1715806 2.19204022,16.1998121 2.19204022,16.2233375 L2.19204022,16.825596 L4.61084322,16.9008783 L4.61084322,16.1104141 C4.50218575,14.0448554 5.07381783,12.0451694 6.23597648,10.3136763 C6.49108522,9.92785506 6.76036572,9.5608532 7.06744001,9.22208281 C8.51777727,7.60821802 10.4310879,6.5542657 12.5097468,6.17314931 L12.0562212,3.80175659 Z M13.7947359,7.22710163 C11.8719761,7.33061541 10.0814959,8.09755302 8.65477948,9.37264743 L10.2421189,11.1794228 C11.2672754,10.2619194 12.5711614,9.71141782 13.945911,9.63613551 C14.0734654,9.62672582 14.1679499,9.63613551 14.2860552,9.63613551 C14.9899644,9.63613551 15.6655288,9.75376381 16.2891264,9.9749059 L17.12059,7.71643664 C16.2418848,7.40589772 15.26397,7.22710163 14.2860552,7.22710163 C14.1112592,7.22710163 13.960084,7.21769194 13.7947359,7.22710163 Z M18.972486,8.61982434 L17.6497031,10.6524467 C19.1850758,11.6734627 20.2244052,13.3437892 20.3330627,15.3199498 L22.7518657,15.2070263 C22.6006905,12.4592221 21.1220085,10.0454834 18.972486,8.61982434 Z M14.0214986,10.8406524 C12.7459586,10.9112299 11.5507289,11.5087835 10.6956445,12.4592221 C9.84056016,13.4096618 9.37758554,14.6471139 9.44844921,15.9222083 C9.44844921,15.9175034 9.50986383,17.2772898 8.95712986,18.8582183 C8.40439588,20.4391468 7.29892672,22.2223968 4.91319359,23.3751568 C4.91319359,23.3751568 4.55887644,23.5351323 4.15731765,23.7139272 C3.75575887,23.8927233 3.25026653,24.0997497 3.13688514,24.1279799 L3.6659983,26.4617315 C4.20456051,26.3393983 4.72422461,26.0994357 5.17775017,25.8971142 C5.63127573,25.6947927 5.9714199,25.5207026 5.9714199,25.5207026 C8.99492365,24.0621085 10.5208485,21.6577795 11.2247577,19.6486826 C11.9286668,17.6395856 11.8767013,16.0398366 11.8672522,15.8092848 L11.8672522,15.7716437 C11.8294584,15.1223344 12.0326004,14.5247807 12.471953,14.0401506 C12.9113055,13.5508156 13.4971094,13.2826226 14.13488,13.2496863 C14.1962946,13.2449815 14.2435375,13.2496863 14.2860552,13.2496863 L14.2860552,10.8406524 C14.1868468,10.8406524 14.1065353,10.8359476 14.0214986,10.8406524 Z M7.2186152,10.9912171 C6.21707958,12.4827475 5.73048415,14.2612926 5.82024472,16.0727729 C5.82024472,16.0868886 5.82024472,16.0962983 5.82024472,16.1104141 C5.82496864,16.2092218 5.92890218,18.8393977 3.32585412,20.1003764 C3.26916343,20.1239018 2.36683623,20.476788 0.982638718,20.476788 L0.982638718,22.8858218 C2.87705248,22.8858218 4.30849284,22.3212045 4.30849284,22.3212045 L4.34628664,22.3212045 L4.38408044,22.2835634 C8.28156543,20.4015056 8.24377164,16.2139278 8.23904772,15.9974906 L8.23904772,15.9598494 C8.16818404,14.6471139 8.54139809,13.4190715 9.25948023,12.3462986 L7.2186152,10.9912171 Z M16.5914768,11.4052698 L15.4198691,13.5508156 C16.1379513,13.936638 16.6576166,14.6377042 16.7048582,15.5081556 C16.7143073,15.7057722 17.0497263,23.2010668 11.1113763,27.9673777 L12.6231282,29.8494354 C19.539393,24.30207 19.1567311,15.9598494 19.1236612,15.3952321 C19.0339006,13.6731499 18.032365,12.1769134 16.5914768,11.4052698 Z M14.2860552,14.4542033 C13.6199398,14.4542033 13.0766537,14.9952952 13.0766537,15.6587202 C13.0766537,15.6869517 13.0766537,15.7104771 13.0766537,15.7340025 C13.0766537,15.7340025 13.2183811,18.2136139 11.9806336,21.0037641 L14.1726738,21.9824341 C15.6041142,18.7594106 15.5049058,15.8657465 15.4954567,15.6587202 C15.4954567,15.6304899 15.4954567,15.6069633 15.4954567,15.5834379 C15.452939,14.9529492 14.9285498,14.4542033 14.2860552,14.4542033 Z M20.2952689,16.7879548 C20.1440937,19.2346299 19.3693209,24.2503143 15.7978071,28.4567127 L17.6119093,30 C21.6794664,25.2148686 22.5439998,19.6910286 22.7140719,16.9385194 L20.2952689,16.7879548 Z M11.3381391,22.2835634 C10.3696733,23.9068378 8.87209442,25.4689457 6.50053306,26.6122961 L7.55875937,28.7954831 C10.3649494,27.4404015 12.2404663,25.4595361 13.4167979,23.4880803 L11.3381391,22.2835634 Z" id="Shape"></path>
        </g>
        <path d="M42.91,31 L37.52,31 L37.52,6.99 L49.105,6.99 C50.4116732,6.99 51.6191611,7.29916357 52.7275,7.9175 C53.8358389,8.53583642 54.7166634,9.39332785 55.37,10.49 C56.0233366,11.5866721 56.35,12.8116599 56.35,14.165 L56.35,14.375 C56.35,15.7050066 56.0291699,16.9358277 55.3875,18.0675 C54.7458301,19.1991723 53.8708389,20.0916634 52.7625,20.745 C51.6541611,21.3983366 50.4350067,21.725 49.105,21.725 L42.91,21.725 L42.91,31 Z M42.91,17.49 L47.845,17.49 C48.7316711,17.49 49.4666638,17.192503 50.05,16.5975 C50.6333362,16.002497 50.925,15.3083373 50.925,14.515 L50.925,14.305 C50.925,13.4883292 50.6391695,12.782503 50.0675,12.1875 C49.4958305,11.592497 48.7550046,11.295 47.845,11.295 L42.91,11.295 L42.91,17.49 Z M69.0110256,19.24 C69.0110256,18.5166631 68.8126943,17.8925026 68.4160256,17.3675 C68.019357,16.8424974 67.3893633,16.58 66.5260256,16.58 C65.7093549,16.58 65.0851945,16.9008301 64.6535256,17.5425 C64.2218568,18.1841699 64.0060256,18.9833286 64.0060256,19.94 L64.0060256,31 L58.9660256,31 L58.9660256,13.115 L62.7460256,13.115 L63.3760256,15.74 C63.4693594,15.4833321 63.7085237,15.121669 64.0935256,14.655 C64.4785276,14.188331 65.038522,13.7566687 65.7735256,13.36 C66.5085293,12.9633314 67.3776873,12.765 68.3810256,12.765 C69.9910337,12.765 71.2335213,13.2666617 72.1085256,14.27 C72.98353,15.2733384 73.4210256,16.6033251 73.4210256,18.26 C73.4210256,18.6100017 73.4035258,18.9599982 73.3685256,19.31 C73.3335255,19.6600017 73.3043591,19.9049993 73.2810256,20.045 L69.0110256,20.045 L69.0110256,19.24 Z M75.6870513,5.8 L80.8670513,5.8 L80.8670513,9.825 L75.6870513,9.825 L75.6870513,5.8 Z M75.7220513,31 L75.7220513,13.115 L80.8320513,13.115 L80.8320513,31 L75.7220513,31 Z M95.0330769,31 L89.2580769,31 L82.9930769,13.115 L88.4180769,13.115 L92.3030769,25.085 L92.4780769,25.085 L96.3630769,13.115 L101.333077,13.115 L95.0330769,31 Z M113.924103,18.925 C113.924103,18.1316627 113.673272,17.4900024 113.171603,17 C112.669933,16.5099976 111.859108,16.265 110.739103,16.265 C110.085766,16.265 109.525772,16.3758322 109.059103,16.5975 C108.592434,16.8191678 108.236604,17.0933317 107.991603,17.42 C107.746601,17.7466683 107.624103,18.0499986 107.624103,18.33 L107.624103,18.61 L102.689103,18.61 C102.642436,18.3299986 102.619103,18.1200007 102.619103,17.98 C102.619103,16.9766616 102.951599,16.0783373 103.616603,15.285 C104.281606,14.4916627 105.209097,13.8733355 106.399103,13.43 C107.589108,12.9866644 108.954095,12.765 110.494103,12.765 L111.229103,12.765 C113.749115,12.765 115.662429,13.2608284 116.969103,14.2525 C118.275776,15.2441716 118.929103,16.6033247 118.929103,18.33 L118.929103,26.59 C118.929103,27.0100021 119.028268,27.324999 119.226603,27.535 C119.424937,27.745001 119.664101,27.85 119.944103,27.85 C120.177437,27.85 120.434101,27.8033338 120.714103,27.71 C120.994104,27.6166662 121.215768,27.5350003 121.379103,27.465 L121.379103,30.615 C120.515765,31.1050025 119.489108,31.35 118.299103,31.35 C117.015763,31.35 116.035773,31.0875026 115.359103,30.5625 C114.682432,30.0374974 114.28577,29.2966714 114.169103,28.34 C112.535761,30.3466767 110.529114,31.35 108.149103,31.35 C106.37576,31.35 104.917442,30.988337 103.774103,30.265 C102.630763,29.541663 102.059103,28.1650102 102.059103,26.135 C102.059103,24.478325 102.531598,23.2125044 103.476603,22.3375 C104.421607,21.4624956 105.734094,20.8733348 107.414103,20.57 C109.094111,20.2666652 111.264089,20.115 113.924103,20.115 L113.924103,18.925 Z M113.924103,22.985 C111.707425,22.985 110.056608,23.2008312 108.971603,23.6325 C107.886597,24.0641688 107.344103,24.7699951 107.344103,25.75 C107.344103,26.5200038 107.559934,27.0624984 107.991603,27.3775 C108.423271,27.6925016 109.082431,27.85 109.969103,27.85 C110.575772,27.85 111.182433,27.6866683 111.789103,27.36 C112.395772,27.0333317 112.903267,26.5666697 113.311603,25.96 C113.719938,25.3533303 113.924103,24.6766704 113.924103,23.93 L113.924103,22.985 Z M127.915128,23.755 C127.915128,24.9216725 128.218458,25.8958294 128.825128,26.6775 C129.431798,27.4591706 130.248456,27.85 131.275128,27.85 C132.348467,27.85 133.194292,27.5175033 133.812628,26.8525 C134.430965,26.1874967 134.740128,25.2016732 134.740128,23.895 L139.570128,23.895 C139.570128,25.5516749 139.214298,26.9399944 138.502628,28.06 C137.790958,29.1800056 136.851801,30.0083306 135.685128,30.545 C134.518456,31.0816693 133.235135,31.35 131.835128,31.35 L131.275128,31.35 C128.661782,31.35 126.585136,30.5741744 125.045128,29.0225 C123.50512,27.4708256 122.735128,25.3183471 122.735128,22.565 L122.735128,21.55 C122.735128,19.7299909 123.102624,18.1608399 123.837628,16.8425 C124.572632,15.5241601 125.581788,14.5150035 126.865128,13.815 C128.148468,13.1149965 129.618453,12.765 131.275128,12.765 L131.835128,12.765 C133.211802,12.765 134.489289,13.062497 135.667628,13.6575 C136.845967,14.252503 137.790958,15.1158277 138.502628,16.2475 C139.214298,17.3791723 139.570128,18.7149923 139.570128,20.255 L134.495128,20.255 C134.495128,19.0416606 134.226798,18.0733369 133.690128,17.35 C133.153459,16.626663 132.360133,16.265 131.310128,16.265 C130.260123,16.265 129.431798,16.6791625 128.825128,17.5075 C128.218458,18.3358375 127.915128,19.3799937 127.915128,20.64 L127.915128,23.755 Z M152.896154,30.02 C152.032816,32.353345 150.97116,34.1908266 149.711154,35.5325 C148.451147,36.8741734 146.934496,37.545 145.161154,37.545 C143.924481,37.545 142.921158,37.3700018 142.151154,37.02 L142.151154,33.415 C142.431155,33.5316672 142.792818,33.6424995 143.236154,33.7475 C143.679489,33.8525005 144.099485,33.905 144.496154,33.905 C145.989495,33.905 147.051151,32.8200109 147.681154,30.65 L140.926154,13.115 L146.351154,13.115 L150.306154,24.35 L150.516154,24.35 L154.226154,13.115 L159.266154,13.115 L152.896154,30.02 Z" id="Privacy" fill="#CA2027"></path>
        <path d="M251.136,8.184 C251.136,9.08933786 250.914336,9.91999622 250.471,10.676 C250.027664,11.4320038 249.42567,12.0316645 248.665,12.475 C247.90433,12.9183356 247.076004,13.14 246.18,13.14 C245.274662,13.14 244.444004,12.9183356 243.688,12.475 C242.931996,12.0316645 242.332336,11.4320038 241.889,10.676 C241.445664,9.91999622 241.224,9.08933786 241.224,8.184 C241.224,7.28799552 241.445664,6.46200378 241.889,5.706 C242.332336,4.94999622 242.93433,4.35266886 243.695,3.914 C244.45567,3.47533114 245.283996,3.256 246.18,3.256 C247.076004,3.256 247.90433,3.47766445 248.665,3.921 C249.42567,4.36433555 250.027664,4.96166291 250.471,5.713 C250.914336,6.46433709 251.136,7.28799552 251.136,8.184 Z M250.324,8.184 C250.324,7.37199594 250.146668,6.64866984 249.792,6.014 C249.437332,5.37933016 248.945003,4.88233513 248.315,4.523 C247.684997,4.16366487 246.973337,3.984 246.18,3.984 C245.377329,3.984 244.661003,4.16133156 244.031,4.516 C243.400997,4.87066844 242.911002,5.36766347 242.561,6.007 C242.210998,6.64633653 242.036,7.37199594 242.036,8.184 C242.036,9.00533744 242.210998,9.73799678 242.561,10.382 C242.911002,11.0260032 243.398664,11.5253316 244.024,11.88 C244.649336,12.2346684 245.367996,12.412 246.18,12.412 C246.973337,12.412 247.684997,12.2346684 248.315,11.88 C248.945003,11.5253316 249.437332,11.0260032 249.792,10.382 C250.146668,9.73799678 250.324,9.00533744 250.324,8.184 Z M248.868,11.04 C248.662666,11.114667 248.420001,11.152 248.14,11.152 C247.850665,11.152 247.617334,11.0796674 247.44,10.935 C247.262666,10.7903326 247.174,10.5546683 247.174,10.228 C247.174,9.74266424 247.108667,9.36466802 246.978,9.094 C246.847333,8.82333198 246.609335,8.688 246.264,8.688 L245.284,8.688 L245.284,11.082 L243.996,11.082 L243.996,5.286 L246.586,5.286 C247.146003,5.286 247.612665,5.39799888 247.986,5.622 C248.359335,5.84600112 248.546,6.2146641 248.546,6.728 C248.546,7.04533492 248.445668,7.33699867 248.245,7.603 C248.044332,7.86900133 247.799335,8.02999972 247.51,8.086 L247.51,8.156 C247.752668,8.23066704 247.967332,8.39633205 248.154,8.653 C248.340668,8.90966795 248.434,9.25266452 248.434,9.682 C248.434,10.3073365 248.578665,10.6619996 248.868,10.746 L248.868,11.04 Z M246.544,7.666 C246.730668,7.666 246.891666,7.60533394 247.027,7.484 C247.162334,7.36266606 247.23,7.21333422 247.23,7.036 L247.23,6.966 C247.23,6.7793324 247.167001,6.62766725 247.041,6.511 C246.914999,6.39433275 246.749334,6.336 246.544,6.336 L245.284,6.336 L245.284,7.666 L246.544,7.666 Z" id="®" fill="#000000" opacity="0.5"></path>
        <path d="M185.215,31 L185.215,9.125 L185.04,9.125 L175.415,31 L173.63,31 L164.075,9.125 L163.9,9.125 L163.9,31 L162.22,31 L162.22,6.99 L165.23,6.99 L174.61,28.585 L174.645,28.585 L184.13,6.99 L187.105,6.99 L187.105,31 L185.215,31 Z M207.105468,28.585 C207.105468,29.3550038 207.420464,29.74 208.050468,29.74 C208.587137,29.74 209.170464,29.5533352 209.800468,29.18 L209.800468,30.685 C209.147131,31.1283356 208.400472,31.35 207.560468,31.35 C206.720463,31.35 206.137136,31.0408364 205.810468,30.4225 C205.483799,29.8041636 205.320468,28.9583387 205.320468,27.885 C204.597131,29.0750059 203.692973,29.9499972 202.607968,30.51 C201.522962,31.0700028 200.245475,31.35 198.775468,31.35 C197.118793,31.35 195.765473,30.9708371 194.715468,30.2125 C193.665462,29.4541629 193.140468,28.1650091 193.140468,26.345 C193.140468,24.688325 193.636296,23.4458375 194.627968,22.6175 C195.619639,21.7891625 196.961292,21.2525012 198.652968,21.0075 C200.344643,20.7624988 202.56712,20.64 205.320468,20.64 L205.320468,18.4 C205.320468,16.9066592 204.964638,15.862503 204.252968,15.2675 C203.541297,14.672497 202.345476,14.375 200.665468,14.375 C199.12546,14.375 197.888806,14.672497 196.955468,15.2675 C196.02213,15.862503 195.555468,16.7783271 195.555468,18.015 L195.555468,18.575 L193.840468,18.575 C193.793801,18.2016648 193.770468,17.8983345 193.770468,17.665 C193.770468,16.1483258 194.417961,14.9525044 195.712968,14.0775 C197.007974,13.2024956 198.658791,12.765 200.665468,12.765 C202.835478,12.765 204.451296,13.1966623 205.512968,14.06 C206.57464,14.9233377 207.105468,16.2533243 207.105468,18.05 L207.105468,28.585 Z M205.320468,22.25 C202.847122,22.25 200.904641,22.3316659 199.492968,22.495 C198.081294,22.6583341 196.967138,23.037497 196.150468,23.6325 C195.333797,24.227503 194.925468,25.1433271 194.925468,26.38 C194.925468,27.5466725 195.257964,28.3983306 195.922968,28.935 C196.587971,29.4716693 197.65546,29.74 199.125468,29.74 C200.175473,29.74 201.172963,29.506669 202.117968,29.04 C203.062972,28.573331 203.832965,27.8675047 204.427968,26.9225 C205.022971,25.9774953 205.320468,24.8166735 205.320468,23.44 L205.320468,22.25 Z M220.840935,30.755 C220.5376,30.9416676 220.170104,31.0874995 219.738435,31.1925 C219.306766,31.2975005 218.880937,31.35 218.460935,31.35 C217.387596,31.35 216.524272,31.0233366 215.870935,30.37 C215.217599,29.7166634 214.890935,28.7483397 214.890935,27.465 L214.890935,14.725 L212.930935,14.725 L212.930935,13.115 L214.890935,13.115 L215.520935,7.41 L216.675935,7.41 L216.675935,13.115 L220.840935,13.115 L220.840935,14.725 L216.675935,14.725 L216.675935,27.395 C216.675935,28.328338 216.856767,28.9524984 217.218435,29.2675 C217.580104,29.5825016 218.064265,29.74 218.670935,29.74 C218.927603,29.74 219.2776,29.6816673 219.720935,29.565 C220.164271,29.4483327 220.5376,29.3200007 220.840935,29.18 L220.840935,30.755 Z M239.406403,24.385 C239.406403,25.8316739 239.097239,27.0799947 238.478903,28.13 C237.860566,29.1800053 237.026408,29.9791639 235.976403,30.5275 C234.926397,31.0758361 233.748076,31.35 232.441403,31.35 C230.971395,31.35 229.670575,30.9941702 228.538903,30.2825 C227.40723,29.5708298 226.526406,28.5383401 225.896403,27.185 C225.2664,25.8316599 224.951403,24.2100095 224.951403,22.32 L224.951403,21.795 C224.951403,19.9049906 225.260566,18.2833401 225.878903,16.93 C226.497239,15.5766599 227.37223,14.5441702 228.503903,13.8325 C229.635575,13.1208298 230.936395,12.765 232.406403,12.765 C233.736409,12.765 234.932231,13.0508305 235.993903,13.6225 C237.055575,14.1941695 237.889733,15.0224946 238.496403,16.1075 C239.103072,17.1925054 239.406403,18.4933257 239.406403,20.01 L239.406403,22.25 L226.736403,22.25 L226.736403,22.53 C226.736403,24.863345 227.267231,26.6483272 228.328903,27.885 C229.390575,29.1216728 230.761394,29.74 232.441403,29.74 C233.934743,29.74 235.177231,29.2850046 236.168903,28.375 C237.160574,27.4649954 237.656403,26.1350088 237.656403,24.385 L239.406403,24.385 Z M232.406403,14.375 C230.843062,14.375 229.548074,14.9116613 228.521403,15.985 C227.494731,17.0583387 226.911403,18.6099898 226.771403,20.64 L237.656403,20.64 L237.656403,20.01 C237.656403,18.1899909 237.160574,16.7958382 236.168903,15.8275 C235.177231,14.8591618 233.923077,14.375 232.406403,14.375 Z" id="Mate" fill="#000000"></path>
    </g>
</svg>