<?xml version="1.0" encoding="UTF-8"?>
<svg width="61px" height="60px" viewBox="0 0 61 60" version="1.1" xmlns="http://www.w3.org/2000/svg" xmlns:xlink="http://www.w3.org/1999/xlink">
    <!-- Generator: Sketch 60.1 (88133) - https://sketch.com -->
    <title>Group 2</title>
    <desc>Created with Sketch.</desc>
    <g id="Welcome" stroke="none" stroke-width="1" fill="none" fill-rule="evenodd">
        <g id="Support-&amp;-My-Account-Menu" transform="translate(-1187.000000, -92.000000)">
            <g id="My-Account" transform="translate(1100.000000, 60.000000)">
                <g id="Group-2" transform="translate(87.156250, 32.000000)">
                    <g id="user" transform="translate(17.000000, 17.000000)" fill="#7D7D7D" fill-rule="nonzero">
                        <path d="M22.1924219,16.8075781 C20.7764883,15.3916953 19.0911602,14.3435195 17.2523711,13.7090078 C19.2217695,12.3525898 20.515625,10.0825156 20.515625,7.515625 C20.515625,3.37151953 17.1441055,0 13,0 C8.85589453,0 5.484375,3.37151953 5.484375,7.515625 C5.484375,10.0825156 6.77823047,12.3525898 8.74767969,13.7090078 C6.90889063,14.3435195 5.2235625,15.3916953 3.80762891,16.8075781 C1.35225391,19.2630039 0,22.5275781 0,26 L2.03125,26 C2.03125,19.9518008 6.95180078,15.03125 13,15.03125 C19.0481992,15.03125 23.96875,19.9518008 23.96875,26 L26,26 C26,22.5275781 24.6477461,19.2630039 22.1924219,16.8075781 Z M13,13 C9.97592578,13 7.515625,10.53975 7.515625,7.515625 C7.515625,4.4915 9.97592578,2.03125 13,2.03125 C16.0240742,2.03125 18.484375,4.4915 18.484375,7.515625 C18.484375,10.53975 16.0240742,13 13,13 Z" id="Shape"></path>
                    </g>
                    <circle id="Oval" stroke="#7D7D7D" stroke-width="2" cx="30" cy="30" r="29"></circle>
                </g>
            </g>
        </g>
    </g>
</svg>